<svg xmlns="http://www.w3.org/2000/svg" viewBox="0 0 612.01 158.94">
    <defs>
        <style>
        .cls-1 { 
            fill: #507ed9;
        }
        .cls-1, 
        .cls-2, 
        .cls-3,
        .cls-4,
        .cls-5,
        .cls-6,
        .cls-7,
        .cls-8 {
            stroke: #000;
        } 
        .cls-1,
        .cls-2,
        .cls-4,
        .cls-5,
        .cls-6,
        .cls-7 {
            stroke-linecap: round;
            stroke-linejoin:round; 
        }
        .cls-2 {
            fill: #436df4;
        } .cls-3 {
            fill: #fff;
        } 
        .cls-3,
        .cls-8 {
            stroke-miterlimit: 10;
        } 
        .cls-4 {
            fill: #6d59ff;
        } 
        .cls-5 {
            fill: #635ffe;
        }
        .cls-6 {
            fill: #9000f4;
        }
        .cls-6,
        .cls-7 {
            stroke-width: 1.32px;
        }
        .cls-7 {
            fill: #0600e9;
        }
        .cls-8 {
            fill: #6263ff;
        }
        </style>
    </defs>
    <title>Wrapper: Online Logo</title>
    <g id="Layer_2" data-name="Layer 2">
        <g id="Layer_1-2" data-name="Layer 1">
            <g id="Layer_1-2-2" data-name="Layer 1-2">
                <path class="cls-1" d="M9,47.54l-1.3,9c-.1,1.3-2,3-5.8,5-2.2,4-.4,9.4,5.4,16.4L29.8,67a14.29,14.29,0,0,0,2.3-9.2l-5.6,2.4,5.6-2.4a8.87,8.87,0,0,0-.7-2.8C24.7,42.54,17.2,40,9,47.54Z"/>
                <path class="cls-2" d="M106.3,23.24a42.4,42.4,0,0,0-12.8-9c-13.7-4.5-25.9-2.2-36.8,7-8.3,8.8-11.2,17.2-8.8,25.3a26.26,26.26,0,0,0,7.4.8,27.37,27.37,0,0,1-7.5-.8,9,9,0,0,1-2.1-.8c-18.3-7.1-30.5-6.5-36.7,1.8Q21.3,36.29,31.5,55a12.76,12.76,0,0,1,.7,2.8c.3,2.9-.5,5.9-2.3,9.2l13,18.2,14-21.5L60.6,58l-3.7,5.7q17.4,16.65,37.8,6.6c13.6-6.7,20.1-16.5,19.3-29.5a28.31,28.31,0,0,0-7.7-17.6M73,18.34c1.7,0,3.4.8,5.3,2.3s2.8,3.2,2.8,4.8a5.2,5.2,0,0,1-.7,3.2c-.5.7-1.5,1-2.9,1a3.36,3.36,0,0,1-1.4-.5q-1-.6-1.5.6a62.51,62.51,0,0,1-4.3,7,4.59,4.59,0,0,1-3.1,1.5A9.53,9.53,0,0,1,61.6,36c-1.9-1.5-2.9-3-2.9-4.7s2-4.2,6.1-7.7,6.9-5.3,8.2-5.3m16,11.1a6.12,6.12,0,0,1-.9-3.5c.3-1.8.8-2.7,1.3-2.8a5.7,5.7,0,0,1,1.3-.1,4.71,4.71,0,0,1,3.3,1.4,5,5,0,0,1,1.7,3.8,2.31,2.31,0,0,1-1.1,2,5.2,5.2,0,0,1-2.5.7,4.2,4.2,0,0,1-3.1-1.5m57.6.5c-.3.8-.8,2.1-1.6,3.9a7.87,7.87,0,0,0-.8,4.5c.3,1.3,1.6,2.7,3.7,4.3s3.5,3,3.9,4.2a5.67,5.67,0,0,1,.1,2.9,6.78,6.78,0,0,1-1.3,2.7,11.26,11.26,0,0,1-2.9,2.4c.1,0,.3-.1.4-.1,10.3-.4,9.7-8.7-1.5-24.8m-3.9-20.4c-.8-1.1-1.5-2.3-2.3-3.6A13.41,13.41,0,0,0,136.1,2a8.49,8.49,0,0,0-5.8-1.5A6.41,6.41,0,0,0,126,3a93.92,93.92,0,0,0-6.2,9.3,29.36,29.36,0,0,1-6.3,7.3,16.71,16.71,0,0,1-7.3,3.6,27.78,27.78,0,0,1,7.7,17.6q7.2,1.2,10.2,2.7a15,15,0,0,1,5.6,5c1.7,2.4,3.1,3.8,4,4.2s2.6,1.2,4.9,2.3,4.2,1.4,5.8.9a21.9,21.9,0,0,0,3.3-1.2,10.91,10.91,0,0,0,2.9-2.3,6.78,6.78,0,0,0,1.3-2.7,4.14,4.14,0,0,0-.1-2.9c-.4-1.2-1.8-2.6-3.9-4.2s-3.4-3-3.7-4.3a6.53,6.53,0,0,1,.8-4.5c.8-1.8,1.3-3.1,1.6-3.9a1.85,1.85,0,0,0,.2-.7,7.59,7.59,0,0,0-.6-4.2,7.91,7.91,0,0,0-2.7-3.3,11.38,11.38,0,0,1-2.5-1.8,2.79,2.79,0,0,1-.6-1.8l2.8-2.7a3.08,3.08,0,0,0,.6-1.9,6.4,6.4,0,0,0-1.1-4Z"/>
                <path class="cls-3" d="M88,25.94a6.12,6.12,0,0,0,.9,3.5,4.39,4.39,0,0,0,5.6.7,3.09,3.09,0,0,0,1.1-2,5,5,0,0,0-1.7-3.8,4.71,4.71,0,0,0-3.3-1.4,5.7,5.7,0,0,0-1.3.1c-.5.2-.9,1.1-1.3,2.9m-9.7-5.3a8,8,0,0,0-5.3-2.3c-1.3,0-4,1.8-8.2,5.3s-6.2,6-6.1,7.7,1,3.2,2.9,4.7a8.92,8.92,0,0,0,5.6,2.2,4.59,4.59,0,0,0,3.1-1.5c.4-.5,1.8-2.8,4.3-7,.3-.8.8-1,1.6-.6a5.78,5.78,0,0,0,1.4.5c1.4,0,2.4-.3,2.9-1a6,6,0,0,0,.7-3.2c-.1-1.6-1-3.2-2.9-4.8Z"/>
                <path class="cls-4" d="M43.2,87.24a30.23,30.23,0,0,0-3.7,12.4,31.55,31.55,0,0,0,.5,8.1c4.3,12.9,14,20.5,29.3,22.7,11.2.5,20.1-2.5,26.8-8.9a35,35,0,0,0-1.4-4.6,35,35,0,0,1,1.4,4.6c.3,1.1.5,2.2.8,3.5.4,1.8.9,4.6,1.6,8.3,1.6,6.9,4.1,11.8,7.5,14.8q3.6,3,7.2,2.7l.6-.1c2.1-.3,4.3-1.7,6.6-4.4,5.1-5.5,7.9-10.3,8.3-14.6s-.3-7.7-1.9-10.3a26.24,26.24,0,0,0-6.8-6.9c.8-3.3,3.2-6.6,7.1-9.9q5.25-4.35,9.6-4.5-.9-1.8-6.6-1.8c-7.1-.2-12.6.6-16.7,2.3q-5.25,2.1-8.1,3.3c-.3.1-.5.2-.8.3a15,15,0,0,1-6.3.7,15,15,0,0,0,6.3-.7c.3-.1.5-.2.8-.3,2.4-8.7-.1-16.7-7.6-24a36.49,36.49,0,0,0-18.8-9.6,33.83,33.83,0,0,0-20.8,2.4,30.13,30.13,0,0,0-10.8,8.2,52.31,52.31,0,0,0-4.1,6.3m3.7,14.1c-.8-1.3-.3-4.6,1.5-9.8s3.2-8.2,4.3-8.9a7.84,7.84,0,0,1,5.4-1.1c2.3.2,3.8,1,4.7,2.3a5,5,0,0,1,.9,2.9,3.47,3.47,0,0,1-1.9,2.5,3.26,3.26,0,0,1-1.4.4.9.9,0,0,0-.9,1.1v.2c-.1,4.8-.1,7.5-.3,8.1a5,5,0,0,1-1.8,3.1,8.23,8.23,0,0,1-5.5,1.3c-2.6,0-4.2-.8-5-2.1m25.7-25.6a4.06,4.06,0,0,1,3.1,2.1,2.65,2.65,0,0,1,.2,2.3,7,7,0,0,1-1.8,2,3.34,3.34,0,0,1-3.2.5,5.58,5.58,0,0,1-2.5-2.3c-.6-1.7-.6-2.7-.3-3.1a4.44,4.44,0,0,1,1.1-.8,5,5,0,0,1,3.4-.7m29.7,44.5,7.7,6.1-7.7-6.1M22.1,59a9.52,9.52,0,0,0-4.1.6c-1.3.5-2.6,1.1-3.9,1.7a24.25,24.25,0,0,0-4.4,2.6,7.76,7.76,0,0,0-3,3.7,13.06,13.06,0,0,0-.5,3.9,26.7,26.7,0,0,1,0,4A19.12,19.12,0,0,1,4,81.74a38.1,38.1,0,0,0-2.8,6.2A16.29,16.29,0,0,0,1.8,99a22.79,22.79,0,0,0,6.5,9.4c3.2,2.8,6.3,4.2,9.4,4.2a13.39,13.39,0,0,0,6.4-2.3,41.33,41.33,0,0,0,5.5-4.7,27.28,27.28,0,0,1,5.8-4.3,10.58,10.58,0,0,1,3.9-1.3A29.79,29.79,0,0,1,43,87.64a30.49,30.49,0,0,1,4.3-6.3,20.23,20.23,0,0,1-6.9-3.4A32.67,32.67,0,0,1,33,70c-2.4-3.6-4-5.8-4.7-6.7A8.67,8.67,0,0,0,22.1,59m10.7,32.7A45.33,45.33,0,0,1,38,92c-1.4-.1-3.1-.2-5.2-.3Z"/>
                <path class="cls-5" d="M143.8,104.94c-.6-1.2-2.1-2.4-4.6-3.4-1-.4-1.8-.8-2.6-1.2q-4.35.15-9.6,4.5c-4,3.3-6.4,6.6-7.1,9.9a26.24,26.24,0,0,1,6.8,6.9c1.6,2.5,2.3,5.9,1.9,10.3s-3.1,9.1-8.3,14.6c-2.3,2.6-4.5,4.1-6.7,4.4l-.6.1a2.92,2.92,0,0,0,.2.9,3.16,3.16,0,0,0,2.1,2.1c1.3.4,3.2.1,5.8-1,13.9-6.2,23.4-14.1,28.5-23.6a12,12,0,0,0,1.8-5.8,5.6,5.6,0,0,0-2-5c-.3-.2-.9-.6-1.8-1.1a5.67,5.67,0,0,1-1.8-1.2c-1-1-1.5-2.8-1.4-5.4q.3-4.5-.6-6Z"/>
                <path class="cls-3" d="M75.7,77.84a4.06,4.06,0,0,0-3.1-2.1,4.29,4.29,0,0,0-3.3.7c-.3.2-.6.5-1.1.8s-.3,1.3.3,3.1a4.35,4.35,0,0,0,2.5,2.3,2.92,2.92,0,0,0,3.1-.6,4.94,4.94,0,0,0,1.8-2,2.44,2.44,0,0,0-.2-2.2M48.3,91.54c-1.7,5.2-2.2,8.5-1.5,9.8s2.4,2.1,4.7,2.2a8.23,8.23,0,0,0,5.5-1.3,4.72,4.72,0,0,0,1.8-3.1q.15-.9.3-8.1c-.1-.8.2-1.2.9-1.3a3.26,3.26,0,0,0,1.4-.4,3.47,3.47,0,0,0,1.9-2.5,5,5,0,0,0-.9-2.9c-.8-1.4-2.3-2.2-4.7-2.3a7.68,7.68,0,0,0-5.3,1.1C51.5,83.34,50.1,86.34,48.3,91.54Z"/>
                <path class="cls-6" d="M211.4,23.64l-19.1,44.6-16-21.8L156,66.74l-12.4-44.9-29.3,2.3,22.9,90.5,20.3-1.5,13-24.1,9,24.1h22.6L242,30.44Z"/>
                <path class="cls-7" d="M285.6,57.34l1.2-10.6c-8.7-1.3-16.3.4-22.9,5l1.1-5H252l-14.6,71.2h12.3l7.5-35.6c4.6-15.8,14.1-24.1,28.4-25M334.9,108c8.5-10.5,13-23.2,13.4-38.3s-7.5-22.9-24.4-22.8C310,47,301.6,52.74,299,64h11.8c1.7-4.6,6.5-6.8,14.2-6.3s11.3,5.2,10.7,14.2H313c-17,0-26.4,7.2-28.3,21.6-1.2,14.4,6,22.5,21.6,24.4.7,0,1.3.1,2,.1a5.7,5.7,0,0,1,1.3.1A36.65,36.65,0,0,0,334.9,108m-22.7-1.3c-11.7.3-17-4.1-15.8-13.2q1.8-9.6,12.3-11.1h25.6c-2.3,15.9-9.8,24-22.1,24.3m110-30.2c1.3-8.5-.8-16.4-6.2-23.8s-15-9.7-28.3-6.3-22.7,12.7-27.9,28.4c-1.6,5.2-6.2,26.2-13.9,63.4h12.5l6.6-27.3c6,5.6,13.8,7.6,23.3,5.8,11-1.9,19.3-7,25.2-15.6a74.56,74.56,0,0,0,8.7-24.6m-25.3-20c10.6.9,14.7,7.8,12.3,20.4-3.6,18-10.7,28-21.6,29.7-13.4.7-18.7-7.2-16-23.6,3.8-17.9,12.2-26.8,25.3-26.5m90.4-3.9c-5.4-7.5-15-9.7-28.4-6.3s-22.7,12.8-27.9,28.5c-1.6,5.2-6.2,26.2-13.9,63.4h12.5l6.7-27.3c6,5.6,13.8,7.6,23.3,5.8,11-1.9,19.3-7,25.2-15.6a72.37,72.37,0,0,0,8.7-24.6c1.2-8.5-.9-16.5-6.2-23.9m-44.6,30.5c3.7-17.9,12.2-26.8,25.3-26.6,10.6.9,14.7,7.8,12.3,20.4-3.6,18-10.7,28-21.6,29.7-13.2.7-18.5-7.1-16-23.5m112.5,4.5a88,88,0,0,0,2.8-18.4c.7-14-5.4-21.6-18.3-22.7-12.7-1.1-22.8,1.6-30.2,8-.7.7-1.3,1.2-2,1.8a34.21,34.21,0,0,0-6,9.1,48.3,48.3,0,0,0-3.2,9.5c-1.5,4.8-2.4,11.3-2.6,19.5s2.3,14.4,7.7,18.9c3.7,3,8.9,4.6,15.6,4.6,15.5,0,24.1-5.8,25.8-17.3h-12c-1.5,5.4-6.1,7.7-14,6.9s-11.4-7.6-10.6-20.1l47,.2m-45-10.5c3-13,10.3-19.5,21.8-19.6,10.9.9,15.5,7.4,13.8,19.6H510.2m97.4-19.8,1.1-10.6c-8.7-1.3-16.3.4-22.9,5l1.1-5H574l-14.6,71.2h12.3l7.5-35.6c4.7-15.8,14.1-24.1,28.4-25Z"/>
                <path class="cls-8" d="M500.8,139.54a20.6,20.6,0,0,1-1.2,7,18.94,18.94,0,0,1-3.5,6,16.05,16.05,0,0,1-5.9,4.4,20.31,20.31,0,0,1-7.7,1.5c-4,0-7.1-1-9.3-3.1a11.23,11.23,0,0,1-3.4-8.5,19.54,19.54,0,0,1,1.3-7.2,17.73,17.73,0,0,1,3.7-6,16.75,16.75,0,0,1,5.8-4,19.31,19.31,0,0,1,7.5-1.5c4,0,7.1,1,9.3,3.1A11,11,0,0,1,500.8,139.54Zm-10.7,9.9a15.3,15.3,0,0,0,2.1-4,18.9,18.9,0,0,0,.8-5.3,7.16,7.16,0,0,0-1.5-4.9,5.46,5.46,0,0,0-4.3-1.8,8.53,8.53,0,0,0-3.5.8,9.13,9.13,0,0,0-3,2.5,12,12,0,0,0-2.2,4,16.45,16.45,0,0,0-.8,5.4,7.42,7.42,0,0,0,1.5,5,5.38,5.38,0,0,0,4.3,1.7,7.4,7.4,0,0,0,3.6-.9A7.22,7.22,0,0,0,490.1,149.44Z"/>
                <path class="cls-8" d="M528,140.84a6.15,6.15,0,0,1-.1,1.3,5.77,5.77,0,0,1-.3,1.4l-3.3,14.3h-7.1l2.5-10.9c.2-.8.3-1.5.4-2.1a8.75,8.75,0,0,0,.2-1.6,2.56,2.56,0,0,0-.6-1.9,3.35,3.35,0,0,0-2.4-.6,4.06,4.06,0,0,0-1.9.4,18.89,18.89,0,0,0-2.5,1.1l-3.6,15.5h-7.1l5-21.9h7.1l-.6,2.4a31.13,31.13,0,0,1,4-2.2,10.46,10.46,0,0,1,3.9-.8,6.81,6.81,0,0,1,4.6,1.4A5.21,5.21,0,0,1,528,140.84Z"/>
                <path class="cls-8" d="M544.8,127.44l-7,30.4h-7.1l7-30.4Z"/>
                <path class="cls-8" d="M556.6,135.94l-5.1,21.9h-7.1l5.1-21.9Zm2.1-8.5-1.2,5.3H550l1.2-5.3Z"/>
                <path class="cls-8" d="M583.8,140.84a6.15,6.15,0,0,1-.1,1.3,5.77,5.77,0,0,1-.3,1.4l-3.3,14.3H573l2.5-10.9c.2-.8.3-1.5.4-2.1a8.75,8.75,0,0,0,.2-1.6,2.56,2.56,0,0,0-.6-1.9,3.35,3.35,0,0,0-2.4-.6,4.06,4.06,0,0,0-1.9.4,18.89,18.89,0,0,0-2.5,1.1l-3.6,15.5H558l5.1-21.9h7.1l-.6,2.4a31.13,31.13,0,0,1,4-2.2,10.46,10.46,0,0,1,3.9-.8,6.81,6.81,0,0,1,4.6,1.4A5.44,5.44,0,0,1,583.8,140.84Z"/>
                <path class="cls-8" d="M599,158.44c-3.7,0-6.6-.8-8.7-2.5a8.55,8.55,0,0,1-3-6.9,14.87,14.87,0,0,1,1-5.5,14,14,0,0,1,2.9-4.4,12,12,0,0,1,4.5-2.9,17.13,17.13,0,0,1,5.9-1.1c3.3,0,5.7.7,7.4,2a7.19,7.19,0,0,1,2.5,5.9,11.53,11.53,0,0,1-.3,2.6,18.24,18.24,0,0,1-.7,2.5H594.1v.4a4.22,4.22,0,0,0,1.6,3.6,7.73,7.73,0,0,0,4.9,1.3,13.17,13.17,0,0,0,4.4-.8,19.89,19.89,0,0,0,3.6-1.7h.8l-1.3,5.6a21.62,21.62,0,0,1-4.3,1.4A19.59,19.59,0,0,1,599,158.44Zm5.4-14.4c0-.2.1-.4.1-.6v-.6a3.1,3.1,0,0,0-1-2.4,4,4,0,0,0-2.8-.8,6.28,6.28,0,0,0-3.7,1.2,7.41,7.41,0,0,0-2.2,3.3h9.6Z"/>
            </g>
        </g>
    </g>
</svg>